<svg width="95" height="34" viewBox="0 0 95 34" fill="none" xmlns="http://www.w3.org/2000/svg">
<path d="M24.6562 34L35.2266 18.7789C33.4229 18.3709 31.8116 17.6638 30.3915 16.6581C28.9724 15.6523 27.8456 14.3564 27.0103 12.7703C26.1745 11.1842 25.7572 9.35458 25.7572 7.2805V1.01355H30.5183V7.79927C30.5183 9.02364 30.8437 10.1939 31.4946 11.3094C32.1455 12.4254 33.0468 13.3368 34.1996 14.0444C35.3518 14.751 36.6636 15.151 38.1344 15.2449L47.9039 1.01355H53.3138L43.1428 15.5271C45.3474 15.8412 47.2177 16.517 48.7535 17.5545C50.2903 18.591 51.4595 19.9029 52.2614 21.49C53.0645 23.0761 53.466 24.8585 53.466 26.8367V34H48.6541V26.5067C48.6541 24.4331 47.9193 22.7133 46.45 21.3469C44.9803 19.9809 42.9093 19.2817 40.2371 19.2499L30.0661 34H24.6562Z" fill="white"/>
<path d="M9.87096 34C7.93364 34 6.22139 33.5682 4.73366 32.7041C3.247 31.8405 2.0863 30.7016 1.25104 29.2874C0.416837 27.8737 0 26.3348 0 24.6702C0 23.1625 0.375101 21.7484 1.12636 20.4286C1.87867 19.1088 2.97228 18.0723 4.40822 17.318C3.00609 16.4702 1.93784 15.4178 1.20244 14.1616C0.467027 12.9045 0.0993224 11.5847 0.0993224 10.2023C0.0993224 8.50636 0.525141 6.96745 1.37783 5.58507C2.23 4.20169 3.3907 3.09409 4.86046 2.26177C6.32969 1.42996 7.95002 1.01355 9.72092 1.01355H23.5986V5.0186H10.2704C9.23487 5.0186 8.31614 5.25463 7.51469 5.72619C6.71272 6.19676 6.07821 6.81689 5.61066 7.5866C5.14416 8.3568 4.91118 9.22837 4.91118 10.2023C4.91118 11.1141 5.15261 11.9469 5.63602 12.7007C6.12048 13.455 6.78034 14.0598 7.61613 14.5154C8.45139 14.9701 9.37012 15.1972 10.3718 15.1972H21.7453V19.2022H10.7226C9.48688 19.2022 8.42603 19.4621 7.54005 19.9814C6.65513 20.4996 5.97044 21.1749 5.48598 22.0067C5.00099 22.8391 4.75902 23.727 4.75902 24.6702C4.75902 25.6123 4.99254 26.4923 5.46062 27.3097C5.92817 28.1261 6.59596 28.7781 7.46397 29.2655C8.33304 29.752 9.35216 29.995 10.5218 29.995H23.5986V34H9.87096Z" fill="white"/>
<path d="M58.1609 33.1143V0.127808H72.9409C75.1455 0.127808 77.1494 0.591916 78.9531 1.51914C80.7562 2.44537 82.1927 3.74129 83.262 5.40692C84.3313 7.07154 84.8659 9.01841 84.8659 11.2485C84.8659 13.3847 84.3397 15.2933 83.2873 16.9748C82.2349 18.6554 80.8069 19.9672 79.0038 20.9103C77.2001 21.8524 75.146 22.3235 72.8416 22.3235H62.9706V33.1143H58.1609ZM62.9706 18.3165H72.29C73.7254 18.3165 75.0362 18.0422 76.2227 17.4936C77.4088 16.944 78.3444 16.1351 79.0291 15.0667C79.7138 13.9974 80.0562 12.7248 80.0562 11.2485C80.0562 9.74091 79.7054 8.46089 79.0038 7.40844C78.3022 6.35501 77.3665 5.54605 76.1974 4.98157C75.0277 4.41609 73.7423 4.13285 72.3407 4.13285H62.9706V18.3165Z" fill="white"/>
<path d="M89.9208 8.53681C92.4524 8.53681 94.4674 6.57652 94.4674 4.27636C94.4674 1.96029 92.4524 0 89.9208 0C87.4065 0 85.3741 1.96029 85.3741 4.27636C85.3741 6.57652 87.4065 8.53681 89.9208 8.53681ZM89.9208 7.90475C87.7853 7.90475 86.0456 6.26894 86.0456 4.27636C86.0456 2.26787 87.7853 0.632062 89.9208 0.632062C92.0562 0.632062 93.7785 2.26787 93.7785 4.27636C93.7785 6.26894 92.0562 7.90475 89.9208 7.90475ZM88.3881 6.46323H88.9909V5.10271H90.2134L91.1781 6.46323H91.9014L90.8506 5.02171C91.4877 4.77873 91.9357 4.21176 91.9357 3.4992C91.9357 2.59185 91.195 1.91159 90.2478 1.89519H88.3881V6.46323ZM88.9909 4.63313V2.36526H90.2652C90.8162 2.36526 91.3329 2.85123 91.3329 3.4992C91.3329 4.16306 90.8162 4.63313 90.2652 4.63313H88.9909Z" fill="white"/>
</svg>
